<?xml version="1.0" encoding="UTF-8"?>
<!-- Generator: visioncortex VTracer 0.6.12 -->
<svg version="1.1" xmlns="http://www.w3.org/2000/svg" width="350" height="450">
<path d="M0 0 C115.5 0 231 0 350 0 C350 148.5 350 297 350 450 C234.5 450 119 450 0 450 C0 301.5 0 153 0 0 Z " fill="#FBFCFC" transform="translate(0,0)"/>
<path d="M0 0 C0.797 -0.003 1.594 -0.007 2.415 -0.01 C5.056 -0.02 7.698 -0.022 10.34 -0.023 C12.171 -0.026 14.001 -0.029 15.832 -0.033 C19.672 -0.039 23.512 -0.041 27.353 -0.04 C32.283 -0.04 37.212 -0.054 42.142 -0.071 C45.924 -0.082 49.705 -0.084 53.487 -0.083 C55.305 -0.085 57.123 -0.089 58.941 -0.097 C61.479 -0.107 64.017 -0.104 66.555 -0.098 C67.311 -0.103 68.068 -0.109 68.847 -0.115 C74.049 -0.083 74.049 -0.083 76.277 2.145 C76.518 5.081 76.518 5.081 76.504 8.89 C76.505 9.583 76.505 10.275 76.505 10.989 C76.504 13.284 76.488 15.578 76.473 17.872 C76.469 19.461 76.466 21.05 76.464 22.639 C76.456 26.824 76.437 31.01 76.415 35.195 C76.394 39.465 76.385 43.735 76.375 48.005 C76.354 56.385 76.319 64.765 76.277 73.145 C69.781 73.272 63.286 73.36 56.789 73.42 C54.578 73.445 52.367 73.479 50.157 73.522 C46.982 73.583 43.808 73.611 40.633 73.634 C39.642 73.659 38.651 73.685 37.631 73.712 C35.081 73.713 32.77 73.678 30.277 73.145 C28.084 70.688 27.277 69.428 27.277 66.145 C20.399 62.419 15.057 60.263 7.277 62.145 C2.347 64.8 -1.201 68.103 -3.723 73.145 C-9.993 73.145 -16.263 73.145 -22.723 73.145 C-22.951 70.313 -23.178 67.481 -23.406 64.649 C-23.723 62.145 -23.723 62.145 -24.723 61.145 C-26.625 61.012 -28.531 60.942 -30.438 60.899 C-31.598 60.866 -32.759 60.833 -33.955 60.8 C-36.421 60.738 -38.887 60.681 -41.354 60.628 C-42.516 60.594 -43.678 60.559 -44.875 60.524 C-45.947 60.499 -47.02 60.474 -48.125 60.448 C-50.723 60.145 -50.723 60.145 -52.723 58.145 C-52.167 53.59 -52.167 53.59 -50.723 52.145 C-48.131 51.985 -45.563 51.886 -42.969 51.829 C-42.581 51.818 -42.581 51.818 -40.619 51.766 C-38.133 51.7 -35.646 51.641 -33.16 51.583 C-31.479 51.54 -29.797 51.496 -28.115 51.452 C-23.984 51.345 -19.854 51.243 -15.723 51.145 C-15.393 49.495 -15.063 47.845 -14.723 46.145 C-20.407 45.05 -26.028 44.826 -31.797 44.628 C-37.506 44.362 -37.506 44.362 -39.723 42.145 C-39.187 38.61 -39.187 38.61 -37.723 37.145 C-35.873 36.917 -34.015 36.75 -32.156 36.61 C-31.032 36.523 -29.907 36.436 -28.748 36.346 C-27.564 36.259 -26.38 36.172 -25.16 36.083 C-23.972 35.992 -22.784 35.901 -21.561 35.807 C-18.615 35.583 -15.669 35.362 -12.723 35.145 C-12.393 33.825 -12.063 32.505 -11.723 31.145 C-21.416 30.076 -31.115 29.848 -40.856 29.668 C-42.916 29.629 -44.975 29.577 -47.035 29.524 C-48.248 29.499 -49.461 29.474 -50.711 29.448 C-53.723 29.145 -53.723 29.145 -56.723 27.145 C-56.91 24.52 -56.91 24.52 -56.723 22.145 C-53.359 20.464 -49.551 20.923 -45.848 20.864 C-45.408 20.855 -45.408 20.855 -43.18 20.808 C-39.405 20.729 -35.629 20.662 -31.854 20.593 C-29.101 20.541 -26.35 20.484 -23.598 20.427 C-23.168 20.42 -23.168 20.42 -20.997 20.385 C-14.948 20.258 -14.948 20.258 -12.723 19.145 C-11.186 18.921 -9.643 18.737 -8.098 18.583 C-7.28 18.499 -6.463 18.415 -5.621 18.329 C-4.995 18.268 -4.368 18.208 -3.723 18.145 C-3.723 17.485 -3.723 16.825 -3.723 16.145 C-4.361 16.085 -4.999 16.024 -5.656 15.962 C-6.483 15.878 -7.309 15.794 -8.16 15.708 C-8.984 15.627 -9.808 15.545 -10.656 15.462 C-12.723 15.145 -12.723 15.145 -13.723 14.145 C-15.394 14.012 -17.07 13.942 -18.746 13.899 C-19.767 13.866 -20.788 13.833 -21.84 13.8 C-24.004 13.739 -26.168 13.681 -28.332 13.628 C-29.356 13.594 -30.379 13.559 -31.434 13.524 C-31.904 13.512 -31.904 13.512 -34.287 13.448 C-36.723 13.145 -36.723 13.145 -39.723 11.145 C-39.348 8.708 -39.348 8.708 -38.723 6.145 C-36.061 4.814 -34.035 5.033 -31.059 5.048 C-29.937 5.051 -28.816 5.054 -27.66 5.057 C-26.485 5.066 -25.309 5.074 -24.098 5.083 C-22.914 5.087 -21.731 5.092 -20.512 5.096 C-17.582 5.108 -14.652 5.125 -11.723 5.145 C-11.434 4.506 -11.145 3.867 -10.848 3.208 C-8.524 -1.053 -4.306 -0.003 0 0 Z " fill="#0E5ED2" transform="translate(88.72265625,141.854736328125)"/>
<path d="M0 0 C2.778 0.017 2.778 0.017 6.293 0.391 C7.563 0.523 8.834 0.656 10.143 0.793 C10.475 0.831 10.475 0.831 12.156 1.021 C14.161 1.247 16.167 1.455 18.174 1.66 C34.415 3.415 34.415 3.415 38 7 C38.125 10.125 38.125 10.125 38 13 C37.614 13.01 37.614 13.01 35.661 13.06 C32.169 13.155 28.679 13.265 25.188 13.375 C23.973 13.406 22.758 13.437 21.506 13.469 C20.924 13.488 20.924 13.488 17.98 13.586 C16.907 13.617 15.833 13.649 14.727 13.681 C12 14 12 14 9 16 C8.601 18.556 8.601 18.556 8.568 21.827 C8.548 23.048 8.528 24.269 8.508 25.527 C8.501 26.864 8.494 28.202 8.488 29.539 C8.471 30.904 8.453 32.269 8.434 33.633 C8.386 37.227 8.357 40.821 8.33 44.415 C8.301 48.081 8.254 51.748 8.209 55.414 C8.123 62.609 8.056 69.804 8 77 C8.66 77 9.32 77 10 77 C9.993 76.28 9.987 75.56 9.98 74.818 C9.92 68.035 9.874 61.252 9.845 54.469 C9.829 50.981 9.808 47.494 9.774 44.007 C9.735 39.998 9.72 35.989 9.707 31.98 C9.692 30.727 9.676 29.474 9.66 28.183 C9.66 27.022 9.66 25.861 9.659 24.665 C9.653 23.641 9.646 22.617 9.639 21.563 C10 19 10 19 11.312 17.17 C14.104 15.235 17.208 15.573 20.484 15.602 C21.218 15.599 21.952 15.596 22.708 15.593 C24.261 15.591 25.815 15.596 27.368 15.609 C29.728 15.625 32.086 15.609 34.445 15.59 C35.958 15.592 37.471 15.596 38.984 15.602 C39.683 15.595 40.381 15.589 41.1 15.583 C46.962 15.666 51.51 17.044 56.152 20.691 C61.858 26.671 66.986 33.029 71.98 39.609 C73.885 41.864 75.648 43.392 78.062 45.062 C80.986 47.088 83.195 48.898 85 52 C85.293 54.797 85.293 54.797 85.188 57.75 C85.174 58.242 85.174 58.242 85.105 60.734 C85.071 61.482 85.036 62.23 85 63 C84.01 63.33 83.02 63.66 82 64 C82.99 64.33 83.98 64.66 85 65 C85 65.99 85 66.98 85 68 C84.01 68.165 84.01 68.165 79 69 C79.99 69.165 79.99 69.165 85 70 C85 70.99 85 71.98 85 73 C83.845 73.165 83.845 73.165 78 74 C80.31 74.33 82.62 74.66 85 75 C85.136 76.748 85.232 78.499 85.312 80.25 C85.342 80.737 85.342 80.737 85.488 83.203 C85 86 85 86 83.277 88.34 C78.089 90.968 72.973 90.457 67.25 90.312 C66.669 90.308 66.669 90.308 63.73 90.283 C55.168 90.168 55.168 90.168 54 89 C53.755 87.461 53.529 85.918 53.312 84.375 C52.264 78.914 50.204 75.605 46 72 C41.762 69.366 36.854 69.334 32 70 C26.681 71.832 23.644 75.104 21 80 C20.34 81.98 19.68 83.96 19 86 C-4.43 86 -27.86 86 -52 86 C-51.67 83.03 -51.34 80.06 -51 77 C-34.83 77 -18.66 77 -2 77 C-2.023 71.609 -2.046 66.218 -2.07 60.664 C-2.081 57.255 -2.09 53.846 -2.098 50.438 C-2.11 45.023 -2.124 39.609 -2.151 34.194 C-2.173 29.831 -2.185 25.467 -2.19 21.103 C-2.193 19.436 -2.201 17.769 -2.211 16.101 C-2.226 13.771 -2.228 11.442 -2.227 9.112 C-2.234 8.418 -2.241 7.724 -2.249 7.008 C-2.228 2.228 -2.228 2.228 0 0 Z " fill="#030305" transform="translate(171,142)"/>
<path d="M0 0 C3.94 1.85 6.783 4.076 10 7 C10 7.66 10 8.32 10 9 C10.297 9.136 10.297 9.136 11.798 9.824 C13.953 10.975 15.462 12.154 17.234 13.82 C17.808 14.355 18.382 14.89 18.973 15.441 C19.559 15.997 20.146 16.553 20.75 17.125 C21.352 17.688 21.954 18.252 22.574 18.832 C24.053 20.217 25.527 21.608 27 23 C27.061 22.29 27.121 21.579 27.184 20.848 C27.225 20.388 27.225 20.388 27.438 18.062 C27.478 17.604 27.478 17.604 27.684 15.285 C28 13 28 13 29 12 C31.02 11.928 33.042 11.916 35.062 11.938 C36.167 11.947 37.272 11.956 38.41 11.965 C39.265 11.976 40.119 11.988 41 12 C40.984 12.35 40.984 12.35 40.901 14.12 C40.15 35.43 40.15 35.43 44.387 40.793 C47.283 43.639 50.609 45.785 54 48 C55.695 49.468 57.363 50.967 59 52.5 C59.791 53.212 60.583 53.923 61.398 54.656 C64.479 57.432 67.557 60.21 70.625 63 C71.159 63.481 71.692 63.963 72.242 64.459 C73.514 65.619 74.76 66.807 76 68 C76 68.33 76 68.66 76 69 C75.073 69.061 74.146 69.121 73.191 69.184 C71.994 69.267 70.796 69.351 69.562 69.438 C68.368 69.519 67.173 69.6 65.941 69.684 C63 70 63 70 62 71 C61.842 72.925 61.749 74.855 61.684 76.785 C61.642 77.955 61.6 79.125 61.557 80.33 C61.517 81.562 61.478 82.793 61.438 84.062 C61.416 84.68 61.416 84.68 61.307 87.807 C61.2 90.871 61.098 93.935 61 97 C60.299 96.257 59.597 95.515 58.875 94.75 C56 92 56 92 52.715 90.488 C50 88 50 88 49.543 85.365 C49.397 80.787 49.528 76.238 49.678 71.662 C49.717 61.922 49.717 61.922 45.965 58.113 C44.667 57.046 43.344 56.009 42 55 C40.688 53.86 39.384 52.711 38.086 51.555 C37.751 51.266 37.751 51.266 36.058 49.804 C32.489 46.675 29.066 43.393 25.625 40.125 C9.771 25.141 9.771 25.141 2 19 C-2.578 20.427 -5.031 22.745 -8.312 26.188 C-11.368 29.34 -14.407 32.46 -17.75 35.312 C-22.369 39.26 -26.776 43.428 -31.205 47.585 C-34.283 50.471 -37.367 53.346 -40.496 56.176 C-41.037 56.665 -41.577 57.155 -42.134 57.659 C-43.59 58.975 -45.051 60.286 -46.512 61.598 C-49 64 -49 64 -50.66 66.789 C-53.934 69.883 -56.439 69.515 -60.816 69.439 C-61.784 69.398 -62.753 69.356 -63.75 69.312 C-64.242 69.301 -64.242 69.301 -66.73 69.244 C-69.155 69.185 -71.577 69.103 -74 69 C-70.707 64.78 -67.204 61.32 -63.137 57.848 C-59.48 54.685 -56.003 51.331 -52.5 48 C-47.733 43.468 -42.92 39.024 -37.951 34.715 C-34.731 31.885 -31.62 28.94 -28.5 26 C-24.103 21.875 -19.689 17.795 -15.117 13.863 C-9.985 9.347 -5.01 4.651 0 0 Z " fill="#030305" transform="translate(174,68)"/>
<path d="M0 0 C-3 1 -3 1 -5.539 -0.074 C-6.557 -0.607 -7.576 -1.139 -8.625 -1.688 C-16.511 -5.472 -24.452 -7.316 -33 -9 C-34.067 -9.227 -35.135 -9.454 -36.234 -9.688 C-67.814 -15.578 -100.808 -6.526 -127.289 10.969 C-152.785 30.072 -166.564 55.547 -174 86 C-179.28 86 -184.56 86 -190 86 C-189.489 77.575 -187.58 70.023 -185 62 C-184.674 60.96 -184.348 59.919 -184.012 58.848 C-178.646 43.374 -169 29.957 -158 18 C-157.433 17.352 -156.866 16.703 -156.281 16.035 C-117.897 -25.581 -45.912 -31.932 0 0 Z " fill="#030406" transform="translate(240,56)"/>
<path d="M0 0 C2.31 0.99 4.62 1.98 7 3 C-0.093 21.914 -17.92 38.098 -35 48 C-36.087 48.648 -37.173 49.297 -38.293 49.965 C-64.59 65.157 -97.286 70.509 -127 64 C-122.895 55.432 -114.58 50.899 -105.928 47.648 C-95.912 44.282 -85.265 43.008 -74.845 41.556 C-49.572 38.025 -24.104 30.358 -7 10 C-4.567 6.73 -2.25 3.398 0 0 Z " fill="#020204" transform="translate(274,215)"/>
<path d="M0 0 C2.97 0 5.94 0 9 0 C10 1 10 1 10.114 2.766 C10.108 3.515 10.103 4.264 10.098 5.035 C10.094 5.844 10.091 6.653 10.088 7.486 C10.08 8.336 10.071 9.187 10.062 10.062 C10.058 10.917 10.053 11.771 10.049 12.65 C10.037 14.767 10.019 16.883 10 19 C11.053 18.359 12.106 17.719 13.191 17.059 C18.332 14.131 23.347 13.386 29.207 14.371 C34.547 16.015 38.108 19.257 41 24 C44.037 31.55 44.438 40.268 41.5 47.938 C39.038 52.613 35.757 55.707 31 58 C24.527 59.793 19.822 59.208 14 56 C13.01 55.34 12.02 54.68 11 54 C10.67 55.32 10.34 56.64 10 58 C6.7 58 3.4 58 0 58 C0 38.86 0 19.72 0 0 Z " fill="#145FCC" transform="translate(225,291)"/>
<path d="M0 0 C4.529 3.324 8.471 7.803 9.82 13.336 C11.258 30.301 -0.241 47.666 -9.18 61.336 C-10.949 61.168 -10.949 61.168 -13.18 60.336 C-23.341 47.868 -32.633 28.465 -31.18 12.336 C-29.217 5.471 -24.993 1.56 -18.93 -1.977 C-12.261 -3.644 -6.033 -3.444 0 0 Z " fill="#1761CB" transform="translate(291.1796875,151.6640625)"/>
<path d="M0 0 C1.362 0.96 2.705 1.951 4 3 C3.125 10.75 3.125 10.75 2 13 C-1.247 11.971 -4.249 10.878 -7.312 9.375 C-12.278 7.523 -17.311 6.792 -22.27 9.02 C-22.555 9.181 -22.555 9.181 -24 10 C-24 12.64 -24 15.28 -24 18 C-23.345 18.17 -22.69 18.34 -22.016 18.516 C1.748 24.826 1.748 24.826 6.375 32.188 C7.634 37.854 7.922 42.963 5.5 48.312 C0.707 53.465 -4.602 56.665 -11.664 57.203 C-21.102 57.353 -28.707 55.583 -37 51 C-37.196 46.781 -36.802 43.83 -35 40 C-32.521 40.976 -30.067 41.97 -27.641 43.07 C-20.838 46.071 -15.08 47.499 -7.938 44.875 C-6 43 -6 43 -5.688 39.812 C-5.791 38.884 -5.894 37.956 -6 37 C-9.895 34.892 -13.625 33.438 -17.863 32.263 C-25.407 30.169 -31.822 28.235 -36.141 21.121 C-37.737 17.18 -37.534 13.168 -37 9 C-29.889 -5.221 -13.256 -5.932 0 0 Z " fill="#115FD0" transform="translate(157,293)"/>
<path d="M0 0 C0.332 0.001 0.332 0.001 2.009 0.004 C4.129 0.01 6.248 0.022 8.367 0.035 C9.803 0.04 11.24 0.045 12.676 0.049 C16.198 0.06 19.72 0.077 23.242 0.098 C23.242 3.398 23.242 6.698 23.242 10.098 C22.46 10.123 21.677 10.148 20.871 10.174 C17.349 10.289 13.827 10.412 10.305 10.535 C9.073 10.574 7.841 10.614 6.572 10.654 C5.987 10.675 5.987 10.675 3.027 10.781 C2.485 10.8 2.485 10.8 -0.258 10.892 C-2.758 11.098 -2.758 11.098 -3.758 12.098 C-4.088 16.058 -4.418 20.018 -4.758 24.098 C3.492 24.098 11.742 24.098 20.242 24.098 C20.242 27.398 20.242 30.698 20.242 34.098 C11.992 34.098 3.742 34.098 -4.758 34.098 C-4.428 37.728 -4.098 41.358 -3.758 45.098 C-0.42 47.323 0.87 47.387 4.785 47.512 C5.322 47.531 5.322 47.531 8.037 47.629 C9.157 47.66 10.276 47.691 11.43 47.723 C12.561 47.761 13.692 47.8 14.857 47.84 C17.652 47.934 20.447 48.02 23.242 48.098 C23.242 51.398 23.242 54.698 23.242 58.098 C18.888 58.185 14.534 58.238 10.18 58.285 C8.951 58.31 7.721 58.335 6.455 58.361 C-1.328 58.424 -6.861 58.257 -13.07 53.223 C-16.778 48.554 -17.066 43.952 -17.059 38.164 C-17.061 37.786 -17.061 37.786 -17.072 35.874 C-17.077 34.282 -17.078 32.689 -17.073 31.096 C-17.07 28.671 -17.094 26.247 -17.119 23.822 C-17.121 22.27 -17.122 20.717 -17.121 19.164 C-17.13 18.445 -17.14 17.726 -17.149 16.985 C-17.106 12.283 -16.234 9.091 -13.758 5.098 C-8.941 0.751 -6.434 -0.027 0 0 Z " fill="#040406" transform="translate(59.7578125,290.90234375)"/>
<path d="M0 0 C0.386 -0.002 0.386 -0.002 2.336 -0.01 C3.965 -0.015 5.594 -0.017 7.223 -0.017 C9.654 -0.019 12.085 -0.038 14.516 -0.057 C22.546 -0.086 30.468 0.166 38.453 1.055 C38.817 1.094 38.817 1.094 40.661 1.29 C42.392 1.506 44.109 1.827 45.82 2.168 C45.985 2.498 45.985 2.498 46.82 4.168 C45.961 4.263 45.102 4.358 44.216 4.456 C-13.324 10.928 -13.324 10.928 -31.18 28.168 C-32.209 29.479 -33.218 30.807 -34.18 32.168 C-45.615 30.245 -56.262 27.032 -67.18 23.168 C-65.862 19.214 -63.52 18.272 -60.055 16.355 C-59.74 16.18 -59.74 16.18 -58.145 15.294 C-40.611 5.774 -20.021 0.031 0 0 Z " fill="#030405" transform="translate(169.1796875,245.83203125)"/>
<path d="M0 0 C4.912 4.789 6.679 9.163 6.878 15.959 C6.9 19.454 6.834 22.944 6.75 26.438 C6.73 27.895 6.712 29.352 6.695 30.809 C6.652 34.352 6.583 37.895 6.5 41.438 C4.876 41.518 3.25 41.577 1.625 41.625 C0.72 41.66 -0.185 41.695 -1.117 41.73 C-1.51 41.682 -1.51 41.682 -3.5 41.438 C-4.16 40.447 -4.82 39.457 -5.5 38.438 C-6.634 39.097 -7.769 39.757 -8.938 40.438 C-13.499 42.698 -17.471 43.378 -22.5 42.438 C-25.991 40.563 -28.937 38.462 -31.5 35.438 C-32.593 31.522 -32.75 27.661 -31.938 23.688 C-29.68 20.154 -26.677 17.18 -22.645 15.805 C-20.086 15.367 -17.659 15.305 -15.062 15.312 C-14.136 15.31 -13.209 15.307 -12.254 15.305 C-9.571 15.434 -7.114 15.84 -4.5 16.438 C-6.125 9.688 -6.125 9.688 -9.5 7.438 C-15.295 6.963 -18.351 7.564 -23.5 10.438 C-24.49 10.438 -25.48 10.438 -26.5 10.438 C-27.49 8.127 -28.48 5.817 -29.5 3.438 C-22.644 -4.502 -8.849 -3.95 0 0 Z " fill="#0B5DD5" transform="translate(205.5,307.5625)"/>
<path d="M0 0 C3.515 3.155 5.571 5.525 6.438 10.188 C6.52 12.577 6.545 14.969 6.535 17.359 C6.534 18.042 6.532 18.724 6.531 19.427 C6.525 21.597 6.513 23.767 6.5 25.938 C6.495 27.413 6.49 28.888 6.486 30.363 C6.475 33.971 6.458 37.579 6.438 41.188 C3.137 41.188 -0.163 41.188 -3.562 41.188 C-3.562 39.868 -3.562 38.548 -3.562 37.188 C-3.877 37.368 -3.877 37.368 -5.469 38.281 C-11.184 41.38 -15.058 43.055 -21.562 42.188 C-25.178 40.755 -28.126 39.265 -30.562 36.188 C-32.225 31.2 -32.395 26.204 -30.375 21.312 C-27.349 17.765 -24.071 16.104 -19.562 15.188 C-14.468 14.873 -9.57 15.16 -4.562 16.188 C-6.038 9.549 -6.038 9.549 -8.367 7.945 C-13.883 6.041 -20.322 8.172 -25.562 10.188 C-28.562 5.562 -28.562 5.562 -28.562 2.188 C-27.337 1.534 -26.107 0.89 -24.875 0.25 C-24.191 -0.11 -23.506 -0.469 -22.801 -0.84 C-15.626 -3.958 -6.905 -3.513 0 0 Z " fill="#115FD0" transform="translate(307.5625,307.8125)"/>
<path d="M0 0 C23.641 3.65 45.313 16.771 59.586 36.007 C68.923 49.148 75.591 63.322 79.375 79 C79.543 79.694 79.711 80.388 79.884 81.103 C80.872 85.524 81.152 89.507 81 94 C76.71 93.01 72.42 92.02 68 91 C67.752 88.814 67.505 86.627 67.25 84.375 C63.771 57.521 49.725 34.057 28.617 17.242 C21.303 11.679 13.504 7.496 5.203 3.594 C2 2 2 2 0 0 Z " fill="#125FCF" transform="translate(212,53)"/>
<path d="M0 0 C0.501 0 0.501 0 3.037 0.002 C3.558 0.01 3.558 0.01 6.191 0.051 C7.228 0.048 8.266 0.044 9.334 0.041 C16.041 0.088 20.544 0.239 25.578 5.078 C26.542 6.144 27.496 7.219 28.441 8.301 C28.927 8.839 29.412 9.377 29.912 9.932 C35.656 16.357 35.656 16.357 36.004 19.926 C35.754 22.363 35.754 22.363 33.754 24.363 C30.776 24.576 27.894 24.667 24.914 24.664 C24.475 24.666 24.475 24.666 22.254 24.677 C20.395 24.683 18.537 24.683 16.678 24.679 C13.831 24.676 10.985 24.699 8.139 24.725 C6.335 24.727 4.531 24.728 2.727 24.727 C2.3 24.731 2.3 24.731 0.141 24.754 C-5.823 24.708 -5.823 24.708 -7.97 22.962 C-10.397 19.922 -9.716 16.097 -9.684 12.363 C-9.704 11.543 -9.724 10.724 -9.744 9.879 C-9.743 9.09 -9.743 8.301 -9.742 7.488 C-9.744 6.769 -9.746 6.05 -9.748 5.309 C-9.246 3.363 -9.246 3.363 -7.543 1.628 C-4.812 0.124 -3.105 -0.01 0 0 Z " fill="#F9F9FA" transform="translate(198.24609375,164.63671875)"/>
<path d="M0 0 C0 0.33 0 0.66 0 1 C-0.313 1.017 -0.313 1.017 -1.898 1.104 C-28.093 2.637 -54.313 6.113 -77.266 19.582 C-80.028 21.014 -81.893 21.868 -85 22 C-91.087 19.184 -96.577 15.033 -101 10 C-71.234 -3.697 -31.849 -6.258 0 0 Z " fill="#040406" transform="translate(171,239)"/>
<path d="M0 0 C0.66 0.33 1.32 0.66 2 1 C3.08 4.717 2.995 8.098 2.812 11.938 C2.752 17.374 3.326 20.002 7 24 C10.003 25.501 13.085 25.184 16.375 25.188 C17.048 25.2 17.721 25.212 18.414 25.225 C22.119 25.236 24.855 25.04 28 23 C29.81 26.042 30.239 27.714 29.438 31.164 C28.106 36.372 25.704 40.763 23 45.375 C22.549 46.168 22.098 46.961 21.633 47.777 C19.835 50.92 18.009 53.986 16 57 C14.262 56.871 14.262 56.871 12 56 C6.402 49.114 2.674 42.029 3 33 C2.34 33 1.68 33 1 33 C1 31.68 1 30.36 1 29 C0.34 29 -0.32 29 -1 29 C-4.258 22.034 -6.716 15.627 -4.387 7.988 C-3.205 5.097 -1.732 2.598 0 0 Z " fill="#0F5ED2" transform="translate(266,156)"/>
<path d="M0 0 C3.654 2.168 6.243 4.749 8.438 8.375 C9.552 13.578 9.835 17.955 7.438 22.75 C5.032 26.439 2.163 28.581 -2 30 C-5.966 30.675 -9.337 30.208 -13.188 29 C-17.476 25.951 -20.375 22.156 -21.414 16.91 C-21.611 12.235 -20.566 8.849 -18 5 C-12.461 -0.599 -7.551 -2.041 0 0 Z " fill="#050608" transform="translate(108,207)"/>
<path d="M0 0 C4.015 2.286 6.46 5.19 9 9 C9.719 13.783 9.642 18.504 7.438 22.875 C3.747 27.606 0.476 29.595 -5.438 30.562 C-10.163 29.816 -13.434 28.189 -17 25 C-19.794 20.286 -20.593 16.439 -20 11 C-16.514 1.318 -9.876 -2.061 0 0 Z " fill="#040407" transform="translate(213,215)"/>
<path d="M0 0 C1.646 -0.027 3.292 -0.046 4.938 -0.062 C5.854 -0.074 6.771 -0.086 7.715 -0.098 C10 0 10 0 11 1 C11.108 2.411 11.149 3.826 11.161 5.241 C11.171 6.142 11.18 7.044 11.19 7.973 C11.194 8.955 11.199 9.937 11.203 10.949 C11.209 11.955 11.215 12.96 11.22 13.996 C11.23 16.13 11.236 18.265 11.24 20.399 C11.25 23.656 11.281 26.913 11.312 30.17 C11.319 32.242 11.324 34.314 11.328 36.387 C11.34 37.359 11.353 38.331 11.366 39.332 C11.348 44.648 11.018 48.423 8 53 C2.734 57.871 -1.119 58.222 -8 58 C-9 57 -9 57 -9.098 54.934 C-9.086 54.11 -9.074 53.286 -9.062 52.438 C-9.053 51.611 -9.044 50.785 -9.035 49.934 C-9.024 49.296 -9.012 48.657 -9 48 C-7.866 47.876 -6.731 47.752 -5.562 47.625 C-4.387 47.419 -3.211 47.212 -2 47 C-0.836 44.671 -0.845 43.237 -0.795 40.642 C-0.775 39.741 -0.755 38.841 -0.734 37.912 C-0.718 36.938 -0.701 35.964 -0.684 34.961 C-0.663 33.965 -0.642 32.969 -0.621 31.943 C-0.555 28.754 -0.496 25.564 -0.438 22.375 C-0.394 20.216 -0.351 18.057 -0.307 15.898 C-0.199 10.599 -0.098 5.3 0 0 Z " fill="#020203" transform="translate(96,306)"/>
<path d="M0 0 C2.333 -0.042 4.667 -0.041 7 0 C9.249 2.249 8.405 8.203 8.518 11.391 C8.741 16.227 9.345 20.432 11 25 C11.66 25.33 12.32 25.66 13 26 C12.511 26.691 12.023 27.382 11.52 28.094 C9.737 31.504 9.629 33.676 9.688 37.5 C9.691 38.603 9.695 39.707 9.699 40.844 C9.995 43.945 10.686 46.194 12 49 C10.68 49.66 9.36 50.32 8 51 C8 52.32 8 53.64 8 55 C5.674 55.381 3.339 55.713 1 56 C0 55 0 55 -0.12 52.792 C-0.118 51.817 -0.116 50.842 -0.114 49.838 C-0.113 48.737 -0.113 47.636 -0.113 46.501 C-0.108 45.303 -0.103 44.105 -0.098 42.871 C-0.096 41.652 -0.095 40.432 -0.093 39.176 C-0.088 35.263 -0.075 31.35 -0.062 27.438 C-0.057 24.792 -0.053 22.147 -0.049 19.502 C-0.038 13.001 -0.021 6.501 0 0 Z " fill="#0D5DD2" transform="translate(226,292)"/>
<path d="M0 0 C3.129 2.703 4.465 4.444 5.75 8.375 C5.75 13.205 5.359 16.043 2.312 19.812 C-0.99 23.115 -2.521 23.558 -7.062 23.688 C-10.673 23.651 -12.054 23.49 -15.25 21.625 C-18.928 17.487 -19.753 14.075 -19.637 8.629 C-18.863 4.118 -15.996 1.656 -12.375 -1 C-7.725 -2.368 -4.333 -2.167 0 0 Z " fill="#EEF7FB" transform="translate(287.25,158.625)"/>
<path d="M0 0 C2.484 3.725 2.232 5.631 2.195 10.074 C2.192 10.758 2.19 11.442 2.187 12.146 C2.176 14.327 2.15 16.507 2.125 18.688 C2.115 20.167 2.106 21.647 2.098 23.127 C2.076 26.751 2.041 30.376 2 34 C0.376 34.081 -1.25 34.139 -2.875 34.188 C-3.78 34.222 -4.685 34.257 -5.617 34.293 C-6.01 34.245 -6.01 34.245 -8 34 C-8.66 33.01 -9.32 32.02 -10 31 C-11.134 31.66 -12.269 32.32 -13.438 33 C-17.999 35.261 -21.971 35.941 -27 35 C-30.491 33.125 -33.437 31.025 -36 28 C-37.093 24.084 -37.25 20.223 -36.438 16.25 C-34.182 12.72 -31.18 9.74 -27.148 8.371 C-24.572 7.926 -22.114 7.83 -19.5 7.812 C-18.562 7.798 -17.623 7.784 -16.656 7.77 C-13.94 8.005 -12.321 8.615 -10 10 C-11.181 10.037 -12.362 10.075 -13.578 10.113 C-15.135 10.179 -16.693 10.245 -18.25 10.312 C-19.027 10.335 -19.805 10.358 -20.605 10.381 C-25.034 10.589 -27.62 10.879 -31 14 C-31.66 14 -32.32 14 -33 14 C-33 14.66 -33 15.32 -33 16 C-33.66 16 -34.32 16 -35 16 C-35 19.3 -35 22.6 -35 26 C-34.34 26 -33.68 26 -33 26 C-32.546 26.804 -32.093 27.609 -31.625 28.438 C-30 31 -30 31 -27.812 31.812 C-27.513 31.843 -27.513 31.843 -26 32 C-25.619 29.674 -25.287 27.339 -25 25 C-25.33 24.67 -25.66 24.34 -26 24 C-25.812 20.562 -25.812 20.562 -25 17 C-20.971 14.258 -16.689 14.566 -12 15 C-8.938 16 -8.938 16 -7 17 C-6.607 21.449 -7.847 24.142 -10 28 C-9.34 28 -8.68 28 -8 28 C-8 29.32 -8 30.64 -8 32 C-5.36 32 -2.72 32 0 32 C0 21.44 0 10.88 0 0 Z " fill="#1861CB" transform="translate(210,315)"/>
<path d="M0 0 C3.522 1.977 5.7 4.099 7 8 C7.416 12.274 7.476 15.904 5.75 19.875 C2.619 23.676 1.164 24.85 -3.875 25.5 C-8.658 25.33 -10.757 23.401 -14 20 C-15.665 15.005 -15.866 9.992 -13.75 5.125 C-9.84 0.378 -6.253 -1.308 0 0 Z " fill="#F5FBFD" transform="translate(250,315)"/>
<path d="M0 0 C0.99 0.33 1.98 0.66 3 1 C3.043 3 3.041 5 3 7 C2 8 2 8 0.152 8.098 C-1.898 8.065 -3.949 8.033 -6 8 C-5.67 8.99 -5.34 9.98 -5 11 C-2.69 11.743 -0.354 12.411 2 13 C3 14 3 14 3.375 16.75 C3 20 3 20 1.312 22.875 C-3.725 26.106 -9.16 25.956 -15 25 C-17.054 21.919 -17.225 21.433 -17.062 18 C-16.939 15.173 -17.075 13.776 -18 11 C-19.65 11 -21.3 11 -23 11 C-20.43 7.859 -17.91 6.941 -14 6 C-8.891 5.634 -4.024 5.969 1 7 C0.67 4.69 0.34 2.38 0 0 Z " fill="#1E62C5" transform="translate(302,317)"/>
<path d="M0 0 C18.947 2.925 34.632 11.593 49 24 C46.072 24.976 44.044 25.082 41 25 C42.32 26.65 43.64 28.3 45 30 C44.67 30.66 44.34 31.32 44 32 C43.648 31.625 43.648 31.625 41.867 29.727 C30.98 18.345 19.442 10.289 5.203 3.594 C2 2 2 2 0 0 Z " fill="#1B61C7" transform="translate(212,53)"/>
<path d="M0 0 C2.472 2.342 3.47 3.993 4.375 7.25 C3.385 6.59 2.395 5.93 1.375 5.25 C1.375 4.59 1.375 3.93 1.375 3.25 C0.715 3.25 0.055 3.25 -0.625 3.25 C-0.625 2.59 -0.625 1.93 -0.625 1.25 C-1.945 0.92 -3.265 0.59 -4.625 0.25 C-4.955 1.24 -5.285 2.23 -5.625 3.25 C-5.955 3.415 -5.955 3.415 -7.625 4.25 C-7.625 4.91 -7.625 5.57 -7.625 6.25 C-6.635 6.58 -5.645 6.91 -4.625 7.25 C-4.625 8.24 -4.625 9.23 -4.625 10.25 C-3.965 10.25 -3.305 10.25 -2.625 10.25 C-2.625 12.23 -2.625 14.21 -2.625 16.25 C-3.285 16.25 -3.945 16.25 -4.625 16.25 C-4.893 15.136 -5.161 14.022 -5.438 12.875 C-6.625 9.25 -6.625 9.25 -9.625 7.25 C-15.42 6.775 -18.476 7.376 -23.625 10.25 C-24.615 10.25 -25.605 10.25 -26.625 10.25 C-27.615 7.94 -28.605 5.63 -29.625 3.25 C-23.187 -4.205 -8.192 -4.984 0 0 Z " fill="#1860CC" transform="translate(205.625,307.75)"/>
<path d="M0 0 C2.438 1.562 2.438 1.562 4 4 C4.457 7.66 4.461 10.026 2.875 13.375 C0.251 15.649 -1.548 15.931 -5 16 C-7.327 14.862 -9.168 13.832 -11 12 C-11.58 4.928 -11.58 4.928 -9.438 1.5 C-6.051 -0.584 -3.906 -0.558 0 0 Z " fill="#050609" transform="translate(284,162)"/>
<path d="M0 0 C-0.33 0.165 -0.33 0.165 -2 1 C-2.414 2.848 -2.414 2.848 -2.625 5.062 C-2.749 6.362 -2.873 7.661 -3 9 C-6.626 8.89 -10.25 8.76 -13.875 8.625 C-14.908 8.594 -15.94 8.563 -17.004 8.531 C-17.99 8.493 -18.976 8.454 -19.992 8.414 C-20.903 8.383 -21.815 8.351 -22.753 8.319 C-25 8 -25 8 -27 6 C-26.464 2.464 -26.464 2.464 -25 1 C-16.696 0.053 -8.35 -0.153 0 0 Z " fill="#165FC9" transform="translate(76,178)"/>
<path d="M0 0 C3.438 1 3.438 1 5.438 2.625 C6.907 6.116 6.422 8.391 5.438 12 C3.812 14 3.812 14 1.438 15 C-2.338 14.934 -4.637 14.781 -7.562 12.312 C-8.957 9.089 -8.603 7.328 -7.562 4 C-5.209 0.469 -4.296 0 0 0 Z " fill="#F5F6F7" transform="translate(208.5625,222)"/>
<path d="M0 0 C1.875 1.125 1.875 1.125 3 3 C3.5 6.931 3.6 9.101 1.375 12.438 C-1.698 14.459 -3.382 14.528 -7 14 C-9.375 13 -9.375 13 -11 11 C-11.454 7.825 -11.695 6.01 -11 3 C-7.567 -1.14 -5.053 -1.648 0 0 Z " fill="#F9FAFB" transform="translate(106,215)"/>
<path d="M0 0 C0.764 0.006 1.529 0.013 2.316 0.02 C4.438 0.188 4.438 0.188 7.438 1.188 C7.746 4.582 7.825 6.565 6 9.5 C2.329 11.918 -1.194 12.428 -5.562 12.188 C-8.125 10.75 -8.125 10.75 -9.562 9.188 C-9.312 5.812 -9.312 5.812 -8.562 2.188 C-5.731 0.235 -3.388 -0.063 0 0 Z " fill="#F0F9FD" transform="translate(193.5625,329.8125)"/>
<path d="M0 0 C0.749 0.005 1.498 0.01 2.269 0.016 C3.078 0.019 3.887 0.022 4.72 0.026 C5.571 0.034 6.421 0.042 7.297 0.051 C8.151 0.056 9.005 0.06 9.885 0.065 C12.001 0.077 14.118 0.094 16.234 0.114 C16.564 3.084 16.894 6.054 17.234 9.114 C14.275 9.194 11.319 9.254 8.359 9.301 C7.938 9.314 7.938 9.314 5.808 9.377 C5.003 9.387 4.197 9.397 3.367 9.406 C2.623 9.422 1.88 9.438 1.114 9.454 C0.493 9.342 -0.127 9.229 -0.766 9.114 C-2.914 5.891 -3.06 4.836 -2.766 1.114 C-1.766 0.114 -1.766 0.114 0 0 Z " fill="#050607" transform="translate(67.765869140625,218.886474609375)"/>
<path d="M0 0 C0.49 5.395 0.49 5.395 -1.875 8.312 C-5.633 11.297 -8.208 11.413 -13 11 C-15.5 9.312 -15.5 9.312 -17 7 C-17 3.931 -16.45 2.543 -14.5 0.188 C-9.886 -2.004 -4.769 -1.59 0 0 Z " fill="#F1F8FD" transform="translate(303,331)"/>
<path d="M0 0 C3.143 2.331 5.508 5.227 7.828 8.355 C7.498 9.015 7.168 9.675 6.828 10.355 C6.599 10.078 6.599 10.078 5.438 8.676 C4.824 7.951 4.21 7.227 3.578 6.48 C2.975 5.761 2.372 5.042 1.75 4.301 C-1.528 0.983 -3.323 0.398 -8.062 0.16 C-9.516 0.173 -10.969 0.197 -12.422 0.23 C-13.167 0.239 -13.912 0.249 -14.68 0.258 C-16.511 0.281 -18.341 0.317 -20.172 0.355 C-20.172 2.005 -20.172 3.655 -20.172 5.355 C-18.192 5.355 -16.212 5.355 -14.172 5.355 C-14.914 5.933 -15.657 6.51 -16.422 7.105 C-18.833 9.078 -21.012 11.116 -23.172 13.355 C-23.502 10.715 -23.832 8.075 -24.172 5.355 C-28.656 10.563 -29.451 14.252 -29.406 20.969 C-29.034 24.761 -27.646 27.854 -26.172 31.355 C-26.172 32.015 -26.172 32.675 -26.172 33.355 C-25.512 33.355 -24.852 33.355 -24.172 33.355 C-24.172 34.675 -24.172 35.995 -24.172 37.355 C-23.512 37.355 -22.852 37.355 -22.172 37.355 C-21.842 39.665 -21.512 41.975 -21.172 44.355 C-24.551 42.666 -25.324 38.825 -26.734 35.48 C-26.893 35.114 -26.893 35.114 -27.693 33.258 C-30.972 25.614 -32.864 18.273 -30.488 9.965 C-27.911 4.361 -24.231 1.14 -18.922 -1.957 C-12.249 -3.625 -6.051 -3.407 0 0 Z " fill="#2362BE" transform="translate(291.171875,151.64453125)"/>
<path d="M0 0 C0.701 0.516 1.403 1.031 2.125 1.562 C3.115 2.222 4.105 2.882 5.125 3.562 C4.465 4.882 3.805 6.202 3.125 7.562 C2.321 6.923 1.516 6.284 0.688 5.625 C-3.262 3.011 -7.178 2.351 -11.875 2.562 C-16.655 4.217 -19.434 6.93 -22.875 10.562 C-25.276 11.763 -26.769 11.677 -29.445 11.66 C-30.341 11.657 -31.237 11.654 -32.16 11.65 C-33.097 11.642 -34.034 11.634 -35 11.625 C-35.945 11.62 -36.89 11.616 -37.863 11.611 C-40.201 11.6 -42.538 11.583 -44.875 11.562 C-44.875 11.232 -44.875 10.903 -44.875 10.562 C-38.605 10.562 -32.335 10.562 -25.875 10.562 C-25.215 8.912 -24.555 7.262 -23.875 5.562 C-17.19 -1.898 -9.28 -4.64 0 0 Z " fill="#E7F5FC" transform="translate(110.875,204.4375)"/>
<path d="M0 0 C0.371 0.32 0.371 0.32 2.25 1.938 C1.26 2.267 0.27 2.598 -0.75 2.938 C-0.75 2.277 -0.75 1.618 -0.75 0.938 C-5.8 -0.098 -10.624 -0.165 -15.75 -0.062 C-16.41 1.587 -17.07 3.238 -17.75 4.938 C-17.111 4.917 -17.111 4.917 -13.875 4.812 C-11.695 4.742 -11.695 4.742 -9.75 4.938 C-9.09 5.598 -8.43 6.257 -7.75 6.938 C-9.049 6.876 -10.349 6.814 -11.688 6.75 C-16.805 6.726 -21.031 8.063 -25.75 9.938 C-28.75 5.312 -28.75 5.312 -28.75 1.938 C-27.525 1.284 -26.295 0.64 -25.062 0 C-24.378 -0.36 -23.694 -0.719 -22.988 -1.09 C-16.139 -4.066 -6.343 -4.269 0 0 Z " fill="#1F63C4" transform="translate(307.75,308.0625)"/>
<path d="M0 0 C3.438 0.812 3.438 0.812 5.438 3.812 C5.875 6.25 5.875 6.25 5.438 8.812 C3.25 11.188 3.25 11.188 0.438 12.812 C-2.44 12.744 -3.99 12.156 -6.438 10.688 C-7.562 8.812 -7.562 8.812 -7.438 5.25 C-6.219 0.462 -4.888 -0.257 0 0 Z " fill="#060609" transform="translate(102.5625,288.1875)"/>
<path d="M0 0 C1 1 1 1 1.188 4.438 C1 8 1 8 -1 10 C-5.053 10.345 -6.548 10.302 -10 8 C-10.399 4.874 -10.469 2.855 -8.938 0.062 C-5.848 -1.632 -3.328 -0.74 0 0 Z " fill="#0B0D14" transform="translate(99,369)"/>
<path d="M0 0 C0.938 -0.014 1.877 -0.028 2.844 -0.043 C5.56 0.193 7.179 0.803 9.5 2.188 C8.319 2.225 7.138 2.262 5.922 2.301 C4.365 2.366 2.807 2.433 1.25 2.5 C0.473 2.523 -0.305 2.545 -1.105 2.568 C-5.534 2.777 -8.12 3.067 -11.5 6.188 C-12.16 6.188 -12.82 6.188 -13.5 6.188 C-13.5 6.848 -13.5 7.507 -13.5 8.188 C-14.16 8.188 -14.82 8.188 -15.5 8.188 C-15.5 11.488 -15.5 14.788 -15.5 18.188 C-14.84 18.188 -14.18 18.188 -13.5 18.188 C-13.294 18.6 -13.294 18.6 -12.25 20.688 C-11.673 21.512 -11.095 22.337 -10.5 23.188 C-7.312 23.5 -7.312 23.5 -4.5 23.188 C-4.5 24.178 -4.5 25.168 -4.5 26.188 C-2.52 26.188 -0.54 26.188 1.5 26.188 C1.5 26.517 1.5 26.848 1.5 27.188 C-5.798 27.771 -9.419 26.636 -15.113 21.824 C-17.674 18.802 -17.486 15.015 -17.5 11.188 C-16.491 6.255 -13.495 4.064 -9.5 1.188 C-6.338 0.113 -3.325 0.023 0 0 Z " fill="#2D68BF" transform="translate(190.5,322.8125)"/>
<path d="M0 0 C1.145 -0.014 2.289 -0.028 3.469 -0.043 C6.5 0.188 6.5 0.188 9.5 2.188 C9.17 3.507 8.84 4.827 8.5 6.188 C7.18 6.188 5.86 6.188 4.5 6.188 C4.5 5.528 4.5 4.868 4.5 4.188 C2.19 4.188 -0.12 4.188 -2.5 4.188 C-2.5 4.847 -2.5 5.507 -2.5 6.188 C-4.81 6.188 -7.12 6.188 -9.5 6.188 C-9.5 4.537 -9.5 2.887 -9.5 1.188 C-6.151 0.071 -3.525 0.02 0 0 Z " fill="#0B5DD5" transform="translate(280.5,150.8125)"/>
<path d="M0 0 C8.472 -0.41 16.246 0.482 23 6 C22.125 13.75 22.125 13.75 21 16 C17.779 14.979 14.83 13.913 11.812 12.375 C7.08 10.254 2.076 10.752 -3 11 C-3 10.34 -3 9.68 -3 9 C-0.604 8.946 1.791 8.906 4.188 8.875 C4.524 8.867 4.524 8.867 6.229 8.824 C10.288 8.785 13.35 9.2 17 11 C17 11.66 17 12.32 17 13 C18.32 13 19.64 13 21 13 C19.375 6.25 19.375 6.25 16 4 C13.671 3.639 11.337 3.303 9 3 C8.67 2.67 8.34 2.34 8 2 C6.653 1.769 5.296 1.588 3.938 1.438 C2.638 1.293 1.339 1.149 0 1 C0 0.67 0 0.34 0 0 Z " fill="#2662BA" transform="translate(138,290)"/>
<path d="M0 0 C2.484 3.725 2.232 5.631 2.195 10.074 C2.192 10.758 2.19 11.442 2.187 12.146 C2.176 14.327 2.15 16.507 2.125 18.688 C2.115 20.167 2.106 21.647 2.098 23.127 C2.076 26.751 2.041 30.376 2 34 C-1.3 34 -4.6 34 -8 34 C-8 33.34 -8 32.68 -8 32 C-5.36 32 -2.72 32 0 32 C0 21.44 0 10.88 0 0 Z " fill="#2F6AC3" transform="translate(210,315)"/>
<path d="M0 0 C2.97 0 5.94 0 9 0 C9.098 6.152 9.098 6.152 9 8 C8 9 8 9 6.152 9.098 C4.102 9.065 2.051 9.033 0 9 C0 6.03 0 3.06 0 0 Z " fill="#0D1015" transform="translate(176,122)"/>
<path d="M0 0 C6.152 -0.098 6.152 -0.098 8 0 C9 1 9 1 9.098 2.848 C9.081 3.873 9.081 3.873 9 9 C6.03 9 3.06 9 0 9 C0 6.03 0 3.06 0 0 Z " fill="#0D0F15" transform="translate(176,110)"/>
<path d="M0 0 C2.051 0.033 4.102 0.065 6.152 0.098 C6.152 3.068 6.152 6.038 6.152 9.098 C3.182 9.098 0.212 9.098 -2.848 9.098 C-2.945 2.945 -2.945 2.945 -2.848 1.098 C-1.848 0.098 -1.848 0.098 0 0 Z " fill="#000103" transform="translate(167.84765625,109.90234375)"/>
<path d="M0 0 C3.399 1.133 4.053 2.125 6 5 C6.454 4.175 6.907 3.35 7.375 2.5 C7.911 1.675 8.448 0.85 9 0 C9.66 0 10.32 0 11 0 C11 3.63 11 7.26 11 11 C10.34 11 9.68 11 9 11 C8.67 9.68 8.34 8.36 8 7 C7.67 7.66 7.34 8.32 7 9 C6.01 9 5.02 9 4 9 C3.67 8.34 3.34 7.68 3 7 C2.67 8.32 2.34 9.64 2 11 C1.34 11 0.68 11 0 11 C0 7.37 0 3.74 0 0 Z " fill="#10141C" transform="translate(73,368)"/>
<path d="M0 0 C2.64 0 5.28 0 8 0 C8.098 6.152 8.098 6.152 8 8 C7 9 7 9 3.438 9.062 C2.303 9.042 1.169 9.021 0 9 C0 6.03 0 3.06 0 0 Z " fill="#06080D" transform="translate(166,122)"/>
<path d="M0 0 C32.721 -0.413 32.721 -0.413 45 2 C45 2.33 45 2.66 45 3 C38.07 3 31.14 3 24 3 C24 2.34 24 1.68 24 1 C16.08 1 8.16 1 0 1 C0 0.67 0 0.34 0 0 Z " fill="#262B33" transform="translate(126,237)"/>
<path d="M0 0 C0.99 0 1.98 0 3 0 C3.671 1.456 4.337 2.915 5 4.375 C5.186 4.781 5.186 4.781 6.125 6.836 C7 9 7 9 7 11 C6.01 11 5.02 11 4 11 C4 10.34 4 9.68 4 9 C1.36 9.66 -1.28 10.32 -4 11 C-3.523 9.541 -3.043 8.083 -2.562 6.625 C-2.296 5.813 -2.029 5.001 -1.754 4.164 C-1 2 -1 2 0 0 Z " fill="#090B10" transform="translate(152,368)"/>
<path d="M0 0 C0.99 0 1.98 0 3 0 C4.32 3.63 5.64 7.26 7 11 C6.01 11 5.02 11 4 11 C4 10.34 4 9.68 4 9 C1.36 9.66 -1.28 10.32 -4 11 C-3.523 9.541 -3.043 8.083 -2.562 6.625 C-2.296 5.813 -2.029 5.001 -1.754 4.164 C-1 2 -1 2 0 0 Z " fill="#090A10" transform="translate(264,368)"/>
<path d="M0 0 C1.646 -0.027 3.292 -0.046 4.938 -0.062 C5.854 -0.074 6.771 -0.086 7.715 -0.098 C10 0 10 0 11 1 C11.041 2.666 11.043 4.334 11 6 C9.354 6.027 7.708 6.046 6.062 6.062 C5.146 6.074 4.229 6.086 3.285 6.098 C1 6 1 6 0 5 C-0.041 3.334 -0.043 1.666 0 0 Z " fill="#F8FAFB" transform="translate(232,210)"/>
<path d="M0 0 C2.64 0 5.28 0 8 0 C8 0.66 8 1.32 8 2 C6.35 2 4.7 2 3 2 C3 2.99 3 3.98 3 5 C4.32 5 5.64 5 7 5 C7 5.66 7 6.32 7 7 C5.68 7 4.36 7 3 7 C3 7.66 3 8.32 3 9 C4.65 9 6.3 9 8 9 C8 9.66 8 10.32 8 11 C5.36 11 2.72 11 0 11 C0 7.37 0 3.74 0 0 Z " fill="#151925" transform="translate(230,368)"/>
<path d="M0 0 C2.64 0 5.28 0 8 0 C8 0.66 8 1.32 8 2 C6.02 2 4.04 2 2 2 C2.33 2.66 2.66 3.32 3 4 C5.062 4.625 5.062 4.625 7 5 C7 5.66 7 6.32 7 7 C5.68 7 4.36 7 3 7 C3 7.66 3 8.32 3 9 C4.65 9 6.3 9 8 9 C8 9.66 8 10.32 8 11 C5.36 11 2.72 11 0 11 C0 7.37 0 3.74 0 0 Z " fill="#0E1119" transform="translate(118,368)"/>
<path d="M0 0 C2.854 0.623 4.875 1.761 7.219 3.484 C8.209 4.144 9.199 4.804 10.219 5.484 C9.559 6.804 8.899 8.124 8.219 9.484 C7.311 8.866 6.404 8.247 5.469 7.609 C3.069 6.04 0.809 4.68 -1.781 3.484 C-1.121 3.154 -0.461 2.824 0.219 2.484 C-3.081 2.154 -6.381 1.824 -9.781 1.484 C-6 -1.037 -4.329 -0.59 0 0 Z " fill="#DAEAF5" transform="translate(105.78125,202.515625)"/>
<path d="M0 0 C0.784 0.041 1.567 0.082 2.375 0.125 C2.705 1.115 3.035 2.105 3.375 3.125 C1.725 2.795 0.075 2.465 -1.625 2.125 C-1.625 2.785 -1.625 3.445 -1.625 4.125 C-0.8 4.455 -0.8 4.455 3.375 6.125 C3.045 7.775 2.715 9.425 2.375 11.125 C0.395 11.125 -1.585 11.125 -3.625 11.125 C-3.625 10.135 -3.625 9.145 -3.625 8.125 C-1.975 8.455 -0.325 8.785 1.375 9.125 C1.375 8.465 1.375 7.805 1.375 7.125 C-0.275 6.795 -1.925 6.465 -3.625 6.125 C-4.25 4.25 -4.25 4.25 -4.625 2.125 C-2.625 0.125 -2.625 0.125 0 0 Z " fill="#0D1017" transform="translate(278.625,367.875)"/>
<path d="M0 0 C0.402 0.01 0.402 0.01 2.438 0.062 C2.768 1.053 3.097 2.043 3.438 3.062 C1.787 2.733 0.137 2.402 -1.562 2.062 C-1.562 2.723 -1.562 3.382 -1.562 4.062 C0.088 4.392 1.738 4.723 3.438 5.062 C4.062 6.938 4.062 6.938 4.438 9.062 C2.438 11.062 2.438 11.062 -0.688 11.188 C-1.162 11.167 -1.162 11.167 -3.562 11.062 C-3.562 10.072 -3.562 9.082 -3.562 8.062 C-1.912 8.392 -0.262 8.723 1.438 9.062 C1.438 8.402 1.438 7.743 1.438 7.062 C-0.213 6.733 -1.863 6.402 -3.562 6.062 C-3.605 4.396 -3.603 2.729 -3.562 1.062 C-2.562 0.062 -2.562 0.062 0 0 Z " fill="#12151D" transform="translate(166.5625,367.9375)"/>
<path d="M0 0 C2.31 0 4.62 0 7 0 C7 0.66 7 1.32 7 2 C5.35 2 3.7 2 2 2 C2 2.99 2 3.98 2 5 C3.65 5 5.3 5 7 5 C7 5.66 7 6.32 7 7 C5.35 7 3.7 7 2 7 C2 7.66 2 8.32 2 9 C3.65 9 5.3 9 7 9 C7.33 9.66 7.66 10.32 8 11 C5.36 11 2.72 11 0 11 C0 7.37 0 3.74 0 0 Z " fill="#10141C" transform="translate(249,368)"/>
<path d="M0 0 C2.31 0 4.62 0 7 0 C7 0.66 7 1.32 7 2 C5.35 2 3.7 2 2 2 C2 2.99 2 3.98 2 5 C3.65 5 5.3 5 7 5 C6.67 5.66 6.34 6.32 6 7 C4.68 7 3.36 7 2 7 C2 7.66 2 8.32 2 9 C3.65 9 5.3 9 7 9 C7.33 9.66 7.66 10.32 8 11 C5.36 11 2.72 11 0 11 C0 7.37 0 3.74 0 0 Z " fill="#0B0E17" transform="translate(137,368)"/>
<path d="M0 0 C0.66 0 1.32 0 2 0 C2.66 2.31 3.32 4.62 4 7 C4.66 7 5.32 7 6 7 C6.144 6.216 6.289 5.433 6.438 4.625 C7 2 7 2 8 0 C8.66 0 9.32 0 10 0 C9.393 4.128 7.962 7.332 6 11 C5.01 11 4.02 11 3 11 C2.494 9.732 1.995 8.46 1.5 7.188 C1.222 6.48 0.943 5.772 0.656 5.043 C0 3 0 3 0 0 Z " fill="#13161E" transform="translate(104,368)"/>
<path d="M0 0 C0.99 0.33 1.98 0.66 3 1 C4.188 3.562 4.188 3.562 5 6 C5.99 4.02 6.98 2.04 8 0 C8.99 0.33 9.98 0.66 11 1 C9.68 4.3 8.36 7.6 7 11 C5.68 10.67 4.36 10.34 3 10 C1.953 7.715 1.953 7.715 1.25 4.938 C1.008 4.018 0.765 3.099 0.516 2.152 C0.345 1.442 0.175 0.732 0 0 Z " fill="#10121A" transform="translate(216,368)"/>
<path d="M0 0 C8.39 1.295 16.089 4.013 24 7 C20.281 8.117 20.281 8.117 17.75 7.062 C17.173 6.712 16.595 6.361 16 6 C16 6.66 16 7.32 16 8 C12.341 6.568 8.76 5.011 5.188 3.375 C4.212 2.929 3.236 2.483 2.23 2.023 C1.494 1.686 0.758 1.348 0 1 C0 0.67 0 0.34 0 0 Z " fill="#3169BD" transform="translate(212,53)"/>
<path d="M0 0 C1.479 -0.027 2.958 -0.046 4.438 -0.062 C5.261 -0.074 6.085 -0.086 6.934 -0.098 C9 0 9 0 10 1 C10.041 2.666 10.043 4.334 10 6 C8.02 6 6.04 6 4 6 C4 4.35 4 2.7 4 1 C1.489 2.255 1.129 3.501 0 6 C0 4.02 0 2.04 0 0 Z " fill="#5B6775" transform="translate(264,390)"/>
<path d="M0 0 C1.94 0.424 3.877 0.865 5.812 1.312 C6.352 1.434 6.352 1.434 9.082 2.051 C11.945 2.982 13.154 3.688 15 6 C13.68 6 12.36 6 11 6 C11 5.34 11 4.68 11 4 C9.68 4 8.36 4 7 4 C7 4.66 7 5.32 7 6 C8.32 6.66 9.64 7.32 11 8 C7.661 8 6.595 7.406 3.812 5.688 C3.097 5.258 2.382 4.829 1.645 4.387 C1.102 3.929 0.559 3.471 0 3 C0 2.01 0 1.02 0 0 Z " fill="#2162C1" transform="translate(228,59)"/>
<path d="M0 0 C2 0 2 0 3.625 1.5 C4.079 1.995 4.533 2.49 5 3 C5.66 2.01 6.32 1.02 7 0 C7.66 0 8.32 0 9 0 C8.01 3.63 7.02 7.26 6 11 C5.01 11 4.02 11 3 11 C2.01 7.37 1.02 3.74 0 0 Z " fill="#1A1E2A" transform="translate(286,368)"/>
<path d="M0 0 C2.625 0.375 2.625 0.375 5 1 C5.043 2.666 5.041 4.334 5 6 C4 7 4 7 1.438 7.062 C1.035 7.052 1.035 7.052 -1 7 C-1.625 4.625 -1.625 4.625 -2 2 C-1.34 1.34 -0.68 0.68 0 0 Z " fill="#F3F4F6" transform="translate(93,370)"/>
<path d="M0 0 C2.65 1.284 5.295 2.577 7.938 3.875 C8.692 4.24 9.447 4.605 10.225 4.98 C10.584 5.158 10.584 5.158 12.402 6.055 C13.067 6.379 13.732 6.704 14.418 7.039 C16 8 16 8 17 10 C14.286 9.364 11.715 8.578 9.109 7.59 C8.4 7.322 7.691 7.055 6.961 6.779 C6.231 6.502 5.502 6.224 4.75 5.938 C4.005 5.656 3.26 5.374 2.492 5.084 C0.661 4.391 -1.17 3.696 -3 3 C-2.01 2.67 -1.02 2.34 0 2 C0 1.34 0 0.68 0 0 Z " fill="#0E1115" transform="translate(223,47)"/>
<path d="M0 0 C-0.33 2.64 -0.66 5.28 -1 8 C-4.714 6.762 -5.774 5.148 -8 2 C-8 1.34 -8 0.68 -8 0 C-4.71 -1.097 -3.287 -0.8 0 0 Z " fill="#0C5ED3" transform="translate(261,78)"/>
<path d="M0 0 C0.66 0.33 0.66 0.33 4 2 C4 2.66 4 3.32 4 4 C4.66 4 5.32 4 6 4 C6.66 2.68 7.32 1.36 8 0 C8.66 0 9.32 0 10 0 C9.856 0.351 9.856 0.351 9.125 2.125 C7.979 5.055 6.974 8.009 6 11 C5.34 11 4.68 11 4 11 C3.711 10.113 3.423 9.226 3.125 8.312 C2.169 5.496 1.132 2.749 0 0 Z " fill="#0F1116" transform="translate(174,368)"/>
<path d="M0 0 C6.102 1.052 10.84 2.525 16 6 C16.33 6.495 16.33 6.495 18 9 C16 9 14 9 12 9 C12 8.01 12 7.02 12 6 C10.02 5.34 8.04 4.68 6 4 C6 3.34 6 2.68 6 2 C4.02 2 2.04 2 0 2 C0 1.34 0 0.68 0 0 Z " fill="#2463C0" transform="translate(144,315)"/>
<path d="M0 0 C-1.545 5.479 -4.155 10.114 -7 15 C-7.33 15 -7.66 15 -8 15 C-8 13.35 -8 11.7 -8 10 C-7.34 10 -6.68 10 -6 10 C-6.082 9.093 -6.165 8.185 -6.25 7.25 C-6 4 -6 4 -4.125 1.625 C-2 0 -2 0 0 0 Z " fill="#2063C5" transform="translate(295,188)"/>
<path d="M0 0 C1.485 0.33 1.485 0.33 9 2 C8.67 2.165 8.67 2.165 7 3 C7.33 4.32 7.66 5.64 8 7 C6.02 6.67 6.02 6.67 -4 5 C-2.68 4.34 -1.36 3.68 0 3 C0 2.01 0 1.02 0 0 Z " fill="#DDF1FC" transform="translate(282,144)"/>
<path d="M0 0 C1.65 1.65 3.3 3.3 5 5 C3.02 7.31 1.04 9.62 -1 12 C-3.667 9.51 -5.557 7.366 -7 4 C-6.01 4 -5.02 4 -4 4 C-3.67 4.495 -3.67 4.495 -2 7 C-1.34 7 -0.68 7 0 7 C0.934 3.99 1.044 3.133 0 0 Z " fill="#1E61C5" transform="translate(267,85)"/>
<path d="M0 0 C1.65 0.33 3.3 0.66 5 1 C4.67 2.65 4.34 4.3 4 6 C3.01 6.33 2.02 6.66 1 7 C0.01 6.01 -0.98 5.02 -2 4 C-1.34 2.68 -0.68 1.36 0 0 Z " fill="#767F89" transform="translate(250,390)"/>
<path d="M0 0 C0.62 0.217 1.24 0.433 1.879 0.656 C10.101 3.241 17.462 3.311 26 3 C26 3.66 26 4.32 26 5 C22.792 5.088 19.584 5.141 16.375 5.188 C15.471 5.213 14.568 5.238 13.637 5.264 C8.29 5.322 4.66 4.949 0 2 C0 1.34 0 0.68 0 0 Z " fill="#E1F5FE" transform="translate(125,346)"/>
<path d="M0 0 C0.702 0.005 1.404 0.009 2.127 0.014 C3.856 0.025 5.584 0.043 7.312 0.062 C7.312 0.723 7.312 1.382 7.312 2.062 C6.481 2.051 5.65 2.039 4.793 2.027 C4.25 2.023 4.25 2.023 1.5 2 C0.961 1.994 0.961 1.994 -1.77 1.965 C-4.688 2.062 -4.688 2.062 -7.688 3.062 C-8.875 6.625 -8.875 6.625 -9.688 10.062 C-10.018 10.062 -10.347 10.062 -10.688 10.062 C-10.688 7.092 -10.688 4.123 -10.688 1.062 C-7.069 -0.144 -3.762 -0.046 0 0 Z " fill="#2161BE" transform="translate(193.6875,328.9375)"/>
<path d="M0 0 C2.051 0.033 4.102 0.065 6.152 0.098 C6.152 3.068 6.152 6.038 6.152 9.098 C5.822 9.098 5.492 9.098 5.152 9.098 C4.822 6.788 4.492 4.478 4.152 2.098 C0.581 3.977 -1.395 5.268 -2.848 9.098 C-2.945 2.945 -2.945 2.945 -2.848 1.098 C-1.848 0.098 -1.848 0.098 0 0 Z " fill="#2A2F38" transform="translate(167.84765625,109.90234375)"/>
<path d="M0 0 C1.65 0.33 3.3 0.66 5 1 C5 2.65 5 4.3 5 6 C3.125 6.625 3.125 6.625 1 7 C0.34 6.34 -0.32 5.68 -1 5 C-0.625 2.375 -0.625 2.375 0 0 Z " fill="#757D87" transform="translate(105,390)"/>
<path d="M0 0 C0.66 0 1.32 0 2 0 C2.33 5.28 2.66 10.56 3 16 C2.01 16.33 1.02 16.66 0 17 C0 11.39 0 5.78 0 0 Z " fill="#D0EAFE" transform="translate(235,293)"/>
<path d="M0 0 C1.98 0 3.96 0 6 0 C6 1.65 6 3.3 6 5 C4.35 5 2.7 5 1 5 C0.67 6.32 0.34 7.64 0 9 C0 6.03 0 3.06 0 0 Z " fill="#63676D" transform="translate(215,388)"/>
<path d="M0 0 C0.66 0 1.32 0 2 0 C2 2.97 2 5.94 2 9 C3.65 9 5.3 9 7 9 C7 9.66 7 10.32 7 11 C4.69 11 2.38 11 0 11 C0 7.37 0 3.74 0 0 Z " fill="#050609" transform="translate(199,368)"/>
<path d="M0 0 C5.94 0 11.88 0 18 0 C14.736 3.264 10.471 2.966 6 3 C2.375 2.062 2.375 2.062 0 1 C0 0.67 0 0.34 0 0 Z " fill="#2664BE" transform="translate(240,347)"/>
<path d="M0 0 C2.915 1.074 4.778 1.778 7 4 C6.361 4.103 5.721 4.206 5.062 4.312 C4.382 4.539 3.701 4.766 3 5 C2.67 5.99 2.34 6.98 2 8 C0.68 7.67 -0.64 7.34 -2 7 C-1.34 4.69 -0.68 2.38 0 0 Z " fill="#2565C5" transform="translate(122,333)"/>
<path d="M0 0 C0.33 0.66 0.66 1.32 1 2 C0.67 2.681 0.34 3.361 0 4.062 C-1.917 9.695 -0.555 15.72 2 21 C-1.823 17.3 -3.154 15.521 -3.25 10.188 C-3.226 5.975 -2.704 3.38 0 0 Z " fill="#2561BB" transform="translate(123,297)"/>
<path d="M0 0 C0.99 0 1.98 0 3 0 C3.66 1.98 4.32 3.96 5 6 C0.25 7.125 0.25 7.125 -2 6 C-1.34 4.02 -0.68 2.04 0 0 Z " fill="#3F434A" transform="translate(264,368)"/>
<path d="M0 0 C0.33 0 0.66 0 1 0 C1.463 8.312 1.226 14.7 -3 22 C-3.33 22 -3.66 22 -4 22 C-4 20.35 -4 18.7 -4 17 C-3.34 17 -2.68 17 -2 17 C-1.34 11.39 -0.68 5.78 0 0 Z " fill="#2B66BE" transform="translate(267,321)"/>
<path d="M0 0 C0.598 0.784 1.196 1.567 1.812 2.375 C4 5 4 5 7 7 C9.262 7.195 9.262 7.195 11.688 7.125 C12.496 7.107 13.304 7.089 14.137 7.07 C14.752 7.047 15.366 7.024 16 7 C16 7.66 16 8.32 16 9 C4.955 9.781 4.955 9.781 1.25 6.75 C0 4 0 4 0 0 Z " fill="#2E69C1" transform="translate(235,332)"/>
<path d="M0 0 C1.437 -0.027 2.875 -0.046 4.312 -0.062 C4.713 -0.068 4.713 -0.068 6.738 -0.098 C9 0 9 0 12 1 C12.369 6.538 12.369 6.538 10.5 8.875 C10.005 9.246 9.51 9.618 9 10 C9.021 8.866 9.041 7.731 9.062 6.562 C9 3 9 3 8 2 C6.653 1.769 5.296 1.588 3.938 1.438 C2.638 1.293 1.339 1.149 0 1 C0 0.67 0 0.34 0 0 Z " fill="#DCF2FD" transform="translate(291,330)"/>
<path d="M0 0 C0.66 0.33 1.32 0.66 2 1 C1.34 1.66 0.68 2.32 0 3 C-0.625 5.125 -0.625 5.125 -1 7 C1.31 7 3.62 7 6 7 C4.68 7.99 3.36 8.98 2 10 C0.062 9.375 0.062 9.375 -2 8 C-2.75 4.875 -2.75 4.875 -3 2 C-2.01 1.34 -1.02 0.68 0 0 Z " fill="#2B65BC" transform="translate(282,308)"/>
<path d="M0 0 C0.99 0 1.98 0 3 0 C3.934 3.01 4.044 3.867 3 7 C1.35 6.67 -0.3 6.34 -2 6 C-1.34 4.02 -0.68 2.04 0 0 Z " fill="#474B51" transform="translate(152,368)"/>
<path d="M0 0 C0.66 0.33 1.32 0.66 2 1 C1.67 1.33 1.34 1.66 1 2 C0.959 3.666 0.957 5.334 1 7 C2.98 7 4.96 7 7 7 C3.375 10 3.375 10 0 10 C-0.99 7.69 -1.98 5.38 -3 3 C-2.01 2.01 -1.02 1.02 0 0 Z " fill="#3069B9" transform="translate(179,308)"/>
<path d="M0 0 C1.98 0 3.96 0 6 0 C6 1.32 6 2.64 6 4 C2.7 4.33 -0.6 4.66 -4 5 C-4 4.34 -4 3.68 -4 3 C-2.02 3 -0.04 3 2 3 C2 2.34 2 1.68 2 1 C1.34 0.67 0.68 0.34 0 0 Z " fill="#DCF5FE" transform="translate(79,157)"/>
<path d="M0 0 C0.784 0.041 1.567 0.082 2.375 0.125 C2.705 1.115 3.035 2.105 3.375 3.125 C1.725 2.795 0.075 2.465 -1.625 2.125 C-1.625 2.785 -1.625 3.445 -1.625 4.125 C-0.965 4.455 -0.305 4.785 0.375 5.125 C-0.945 5.455 -2.265 5.785 -3.625 6.125 C-4.25 4.25 -4.25 4.25 -4.625 2.125 C-2.625 0.125 -2.625 0.125 0 0 Z " fill="#22252F" transform="translate(278.625,367.875)"/>
<path d="M0 0 C2.985 4.477 4 8.638 4 14 C3.34 14 2.68 14 2 14 C0.029 9.073 -0.18 5.22 0 0 Z " fill="#2967BE" transform="translate(287,120)"/>
<path d="M0 0 C1.32 0 2.64 0 4 0 C4 0.66 4 1.32 4 2 C5.32 2 6.64 2 8 2 C8.33 2.99 8.66 3.98 9 5 C8.01 5.33 7.02 5.66 6 6 C2.812 4.188 2.812 4.188 0 2 C0 1.34 0 0.68 0 0 Z " fill="#0D5DD2" transform="translate(235,63)"/>
<path d="M0 0 C0.66 0 1.32 0 2 0 C2.625 1.875 2.625 1.875 3 4 C1 6 1 6 -2.125 6.125 C-2.599 6.104 -2.599 6.104 -5 6 C-5 5.01 -5 4.02 -5 3 C-3.35 3.33 -1.7 3.66 0 4 C0 2.68 0 1.36 0 0 Z " fill="#191D25" transform="translate(168,373)"/>
<path d="M0 0 C0 1.32 0 2.64 0 4 C-1.98 4 -3.96 4 -6 4 C-6 2.68 -6 1.36 -6 0 C-2.25 -1.125 -2.25 -1.125 0 0 Z " fill="#0C5DD4" transform="translate(287,311)"/>
<path d="M0 0 C1.65 0.33 3.3 0.66 5 1 C5 1.99 5 2.98 5 4 C3.02 4.33 1.04 4.66 -1 5 C-0.67 3.35 -0.34 1.7 0 0 Z " fill="#576378" transform="translate(159,390)"/>
<path d="M0 0 C0.33 0 0.66 0 1 0 C1.982 4.053 2.082 7.839 2 12 C0.35 11.67 -1.3 11.34 -3 11 C-2.01 10.67 -1.02 10.34 0 10 C0 6.7 0 3.4 0 0 Z " fill="#3468B6" transform="translate(291,135)"/>
<path d="M0 0 C0.66 0 1.32 0 2 0 C2 2.64 2 5.28 2 8 C1.34 8 0.68 8 0 8 C-1.125 5.688 -1.125 5.688 -2 3 C-1.34 2.01 -0.68 1.02 0 0 Z " fill="#515C6F" transform="translate(99,388)"/>
<path d="M0 0 C3.594 1.335 6.755 2.96 10 5 C7 6 7 6 4.957 5.223 C4.249 4.84 3.542 4.457 2.812 4.062 C2.097 3.682 1.382 3.302 0.645 2.91 C0.102 2.61 -0.441 2.309 -1 2 C-0.67 1.34 -0.34 0.68 0 0 Z " fill="#242A35" transform="translate(230,51)"/>
<path d="M0 0 C1.626 0.309 3.251 0.622 4.875 0.938 C5.78 1.112 6.685 1.286 7.617 1.465 C10 2 10 2 12 3 C12 3.66 12 4.32 12 5 C7.611 4.335 4.019 2.812 0 1 C0 0.67 0 0.34 0 0 Z " fill="#567AAF" transform="translate(212,53)"/>
<path d="M0 0 C0.99 0.33 1.98 0.66 3 1 C3 3.31 3 5.62 3 8 C2.01 7.67 1.02 7.34 0 7 C-0.381 5.009 -0.713 3.007 -1 1 C-0.67 0.67 -0.34 0.34 0 0 Z " fill="#3F485B" transform="translate(237,389)"/>
<path d="M0 0 C0.825 0.165 0.825 0.165 5 1 C5 1.99 5 2.98 5 4 C3.35 4 1.7 4 0 4 C0 2.68 0 1.36 0 0 Z " fill="#BDC3C7" transform="translate(135,391)"/>
<path d="M0 0 C2.31 0 4.62 0 7 0 C7 0.66 7 1.32 7 2 C6.216 2.103 5.433 2.206 4.625 2.312 C2 3 2 3 0 6 C0 4.02 0 2.04 0 0 Z " fill="#020205" transform="translate(249,368)"/>
<path d="M0 0 C0 3 0 3 -1.688 5.188 C-4.396 7.311 -5.647 7.373 -9 7 C-8.722 6.794 -8.722 6.794 -7.312 5.75 C-4.838 3.877 -2.416 1.947 0 0 Z " fill="#D9EEFC" transform="translate(161,342)"/>
<path d="M0 0 C0.99 0 1.98 0 3 0 C4.273 3.648 5.328 7.194 6 11 C2.904 7.491 1.258 4.508 0 0 Z " fill="#2061BF" transform="translate(266,97)"/>
<path d="M0 0 C0.66 0 1.32 0 2 0 C2 3.63 2 7.26 2 11 C1.67 11 1.34 11 1 11 C1 8.69 1 6.38 1 4 C0.34 4 -0.32 4 -1 4 C-0.67 2.68 -0.34 1.36 0 0 Z " fill="#01030A" transform="translate(82,368)"/>
<path d="M0 0 C2.25 0.25 2.25 0.25 4 1 C4 1.99 4 2.98 4 4 C1.36 4 -1.28 4 -4 4 C-2.25 1.938 -2.25 1.938 0 0 Z " fill="#141924" transform="translate(252,206)"/>
<path d="M0 0 C5.859 -0.391 5.859 -0.391 8 0 C9.32 1.32 10.64 2.64 12 4 C10.02 3.505 10.02 3.505 0 1 C0 0.67 0 0.34 0 0 Z " fill="#C7E0F6" transform="translate(188,314)"/>
<path d="M0 0 C0.404 0.014 0.404 0.014 2.449 0.082 C3.064 0.117 3.679 0.152 4.312 0.188 C4.312 0.517 4.312 0.848 4.312 1.188 C3.787 1.26 3.787 1.26 1.125 1.625 C-1.842 2.063 -4.755 2.566 -7.688 3.188 C-5.268 0.205 -3.789 -0.165 0 0 Z " fill="#1E5EBF" transform="translate(246.6875,305.8125)"/>
</svg>
